{
  "accessors": [
    {
      "bufferView": 2,
      "componentType": 5126,
      "count": 8148,
      "max": [
        3.5857629776000977,
        3.8524980545043945,
        4.282771110534668
      ],
      "min": [
        1.728882908821106,
        2.0160369873046875,
        2.389925956726074
      ],
      "type": "VEC3"
    },
    {
      "bufferView": 2,
      "byteOffset": 97776,
      "componentType": 5126,
      "count": 8148,
      "max": [
        1.0,
        1.0,
        1.0
      ],
      "min": [
        -1.0,
        -1.0,
        -1.0
      ],
      "type": "VEC3"
    },
    {
      "bufferView": 1,
      "componentType": 5126,
      "count": 8148,
      "max": [
        0.9974730014801025,
        0.9917529821395874
      ],
      "min": [
        -0.0023950000759214163,
        0.006816999986767769
      ],
      "type": "VEC2"
    },
    {
      "bufferView": 0,
      "componentType": 5125,
      "count": 45942,
      "type": "SCALAR"
    },
    {
      "bufferView": 2,
      "byteOffset": 195552,
      "componentType": 5126,
      "count": 1476,
      "max": [
        5.010806083679199,
        3.7339141368865967,
        4.083436965942383
      ],
      "min": [
        0.30443286895751953,
        2.027754068374634,
        2.60585880279541
      ],
      "type": "VEC3"
    },
    {
      "bufferView": 2,
      "byteOffset": 213264,
      "componentType": 5126,
      "count": 1476,
      "max": [
        0.9986816644668579,
        1.0,
        1.0
      ],
      "min": [
        -0.8748356699943542,
        -1.0,
        -1.0
      ],
      "type": "VEC3"
    },
    {
      "bufferView": 1,
      "byteOffset": 65184,
      "componentType": 5126,
      "count": 1476,
      "max": [
        0.9864850044250488,
        0.9809899926185608
      ],
      "min": [
        0.016843000426888466,
        0.014165000058710575
      ],
      "type": "VEC2"
    },
    {
      "bufferView": 0,
      "byteOffset": 183768,
      "componentType": 5125,
      "count": 7860,
      "type": "SCALAR"
    },
    {
      "bufferView": 2,
      "byteOffset": 230976,
      "componentType": 5126,
      "count": 3330,
      "max": [
        5.315239906311035,
        5.753438949584961,
        6.689295768737793
      ],
      "min": [
        0.0,
        0.0,
        0.0
      ],
      "type": "VEC3"
    },
    {
      "bufferView": 2,
      "byteOffset": 270936,
      "componentType": 5126,
      "count": 3330,
      "max": [
        1.0,
        1.0,
        1.0
      ],
      "min": [
        -1.0,
        -1.0,
        -1.0
      ],
      "type": "VEC3"
    },
    {
      "bufferView": 1,
      "byteOffset": 76992,
      "componentType": 5126,
      "count": 3330,
      "max": [
        0.9947460293769836,
        0.9852269887924194
      ],
      "min": [
        0.005963000003248453,
        0.00837399996817112
      ],
      "type": "VEC2"
    },
    {
      "bufferView": 0,
      "byteOffset": 215208,
      "componentType": 5125,
      "count": 5856,
      "type": "SCALAR"
    }
  ],
  "asset": {
    "extras": {
      "author": "Mickael Boitte (https://sketchfab.com/boittemike1)",
      "license": "CC-BY-4.0 (http://creativecommons.org/licenses/by/4.0/)",
      "source": "https://sketchfab.com/3d-models/3d-tie-fighter-star-wars-model-5375de94c2484ab0b2a2bd75aa63c2b4",
      "title": "3D T.I.E Fighter - Star Wars model"
    },
    "generator": "Sketchfab-12.66.0",
    "version": "2.0"
  },
  "bufferViews": [
    {
      "buffer": 0,
      "byteLength": 238632,
      "name": "floatBufferViews",
      "target": 34963
    },
    {
      "buffer": 0,
      "byteLength": 103632,
      "byteOffset": 238632,
      "byteStride": 8,
      "name": "floatBufferViews",
      "target": 34962
    },
    {
      "buffer": 0,
      "byteLength": 310896,
      "byteOffset": 342264,
      "byteStride": 12,
      "name": "floatBufferViews",
      "target": 34962
    }
  ],
  "buffers": [
    {
      "byteLength": 653160,
      "uri": "scene.bin"
    }
  ],
  "images": [
    {
      "uri": "textures/Material.001_baseColor.png"
    },
    {
      "uri": "textures/Material.001_metallicRoughness.png"
    },
    {
      "uri": "textures/Material.002_baseColor.jpeg"
    },
    {
      "uri": "textures/Material.003_baseColor.jpeg"
    }
  ],
  "materials": [
    {
      "alphaMode": "BLEND",
      "doubleSided": true,
      "name": "Material.001",
      "pbrMetallicRoughness": {
        "baseColorTexture": {
          "index": 0
        },
        "metallicFactor": 0.7000000000000001,
        "metallicRoughnessTexture": {
          "index": 1
        },
        "roughnessFactor": 0.48
      }
    },
    {
      "doubleSided": true,
      "name": "Material.002",
      "pbrMetallicRoughness": {
        "baseColorTexture": {
          "index": 2
        },
        "metallicFactor": 0.65,
        "roughnessFactor": 0.5700000000000001
      }
    },
    {
      "doubleSided": true,
      "name": "Material.003",
      "pbrMetallicRoughness": {
        "baseColorTexture": {
          "index": 3
        },
        "metallicFactor": 0.65,
        "roughnessFactor": 0.6799999999999999
      }
    }
  ],
  "meshes": [
    {
      "name": "Object_0",
      "primitives": [
        {
          "attributes": {
            "NORMAL": 1,
            "POSITION": 0,
            "TEXCOORD_0": 2
          },
          "indices": 3,
          "material": 0,
          "mode": 4
        }
      ]
    },
    {
      "name": "Object_1",
      "primitives": [
        {
          "attributes": {
            "NORMAL": 5,
            "POSITION": 4,
            "TEXCOORD_0": 6
          },
          "indices": 7,
          "material": 1,
          "mode": 4
        }
      ]
    },
    {
      "name": "Object_2",
      "primitives": [
        {
          "attributes": {
            "NORMAL": 9,
            "POSITION": 8,
            "TEXCOORD_0": 10
          },
          "indices": 11,
          "material": 2,
          "mode": 4
        }
      ]
    }
  ],
  "nodes": [
    {
      "children": [
        1
      ],
      "matrix": [
        0.6927765807390074,
        0.23672428717489422,
        0.07407687433280691,
        0.0,
        0.11896555398234199,
        -0.12427217949078069,
        -0.7154500571935785,
        0.0,
        -0.2176533344840692,
        0.6855532437285206,
        -0.15527071500791564,
        0.0,
        0.6797606348991394,
        -0.14055311679840096,
        0.3584893643856048,
        1.0
      ],
      "name": "Sketchfab_model"
    },
    {
      "children": [
        2,
        3,
        4
      ],
      "name": "tie_UV.obj.cleaner.gles"
    },
    {
      "mesh": 0,
      "name": "Object_2"
    },
    {
      "mesh": 1,
      "name": "Object_3"
    },
    {
      "mesh": 2,
      "name": "Object_4"
    }
  ],
  "samplers": [
    {
      "magFilter": 9729,
      "minFilter": 9987,
      "wrapS": 10497,
      "wrapT": 10497
    }
  ],
  "scene": 0,
  "scenes": [
    {
      "name": "Sketchfab_Scene",
      "nodes": [
        0
      ]
    }
  ],
  "textures": [
    {
      "sampler": 0,
      "source": 0
    },
    {
      "sampler": 0,
      "source": 1
    },
    {
      "sampler": 0,
      "source": 2
    },
    {
      "sampler": 0,
      "source": 3
    }
  ]
}
