{
  "accessors": [
    {
      "bufferView": 2,
      "componentType": 5126,
      "count": 43,
      "max": [
        -0.13929300010204315,
        0.05954689905047417,
        0.5540599822998047
      ],
      "min": [
        -0.4542959928512573,
        -0.2569580078125,
        0.5378829836845398
      ],
      "type": "VEC3"
    },
    {
      "bufferView": 2,
      "byteOffset": 516,
      "componentType": 5126,
      "count": 43,
      "max": [
        1.0,
        1.0,
        1.0
      ],
      "min": [
        -1.0,
        -0.7808703184127808,
        -1.2722004782972363e-07
      ],
      "type": "VEC3"
    },
    {
      "bufferView": 3,
      "componentType": 5126,
      "count": 43,
      "max": [
        0.9999930262565613,
        0.481346994638443,
        1.0,
        1.0
      ],
      "min": [
        0.0,
        -0.559037983417511,
        -0.9998660087585449,
        1.0
      ],
      "type": "VEC4"
    },
    {
      "bufferView": 1,
      "componentType": 5126,
      "count": 43,
      "max": [
        0.18370899558067322,
        0.6960870027542114
      ],
      "min": [
        0.008784630335867405,
        0.5263140201568604
      ],
      "type": "VEC2"
    },
    {
      "bufferView": 0,
      "componentType": 5125,
      "count": 69,
      "type": "SCALAR"
    },
    {
      "bufferView": 2,
      "byteOffset": 1032,
      "componentType": 5126,
      "count": 41,
      "max": [
        0.09806180000305176,
        0.05954689905047417,
        0.5418969988822937
      ],
      "min": [
        -0.21694199740886688,
        -0.2569580078125,
        0.52572101354599
      ],
      "type": "VEC3"
    },
    {
      "bufferView": 2,
      "byteOffset": 1524,
      "componentType": 5126,
      "count": 41,
      "max": [
        1.0,
        1.0,
        1.0
      ],
      "min": [
        -1.0,
        -0.7795081734657288,
        -1.2699803164650803e-07
      ],
      "type": "VEC3"
    },
    {
      "bufferView": 3,
      "byteOffset": 688,
      "componentType": 5126,
      "count": 41,
      "max": [
        1.0,
        0.4878059923648834,
        1.0,
        1.0
      ],
      "min": [
        0.0,
        -0.49538299441337585,
        -1.0,
        1.0
      ],
      "type": "VEC4"
    },
    {
      "bufferView": 1,
      "byteOffset": 344,
      "componentType": 5126,
      "count": 41,
      "max": [
        0.5402830243110657,
        0.789014995098114
      ],
      "min": [
        0.38793501257896423,
        0.6375730037689209
      ],
      "type": "VEC2"
    },
    {
      "bufferView": 0,
      "byteOffset": 276,
      "componentType": 5125,
      "count": 69,
      "type": "SCALAR"
    },
    {
      "bufferView": 2,
      "byteOffset": 2016,
      "componentType": 5126,
      "count": 3330,
      "max": [
        1.0,
        0.25705501437187195,
        0.6978830099105835
      ],
      "min": [
        -1.0,
        -0.25705501437187195,
        -0.6978830099105835
      ],
      "type": "VEC3"
    },
    {
      "bufferView": 2,
      "byteOffset": 41976,
      "componentType": 5126,
      "count": 3330,
      "max": [
        1.0,
        1.0,
        1.0
      ],
      "min": [
        -1.0,
        -1.0,
        -1.0
      ],
      "type": "VEC3"
    },
    {
      "bufferView": 3,
      "byteOffset": 1344,
      "componentType": 5126,
      "count": 3330,
      "max": [
        1.0,
        1.0,
        1.0,
        1.0
      ],
      "min": [
        -1.0,
        -1.0,
        -1.0,
        1.0
      ],
      "type": "VEC4"
    },
    {
      "bufferView": 1,
      "byteOffset": 672,
      "componentType": 5126,
      "count": 3330,
      "max": [
        0.9928969740867615,
        0.9924160242080688
      ],
      "min": [
        0.007534840144217014,
        0.006743109785020351
      ],
      "type": "VEC2"
    },
    {
      "bufferView": 0,
      "byteOffset": 552,
      "componentType": 5125,
      "count": 8952,
      "type": "SCALAR"
    }
  ],
  "asset": {
    "extras": {
      "author": "Sabri Ayeş (https://sketchfab.com/sabriayes)",
      "license": "CC-BY-4.0 (http://creativecommons.org/licenses/by/4.0/)",
      "source": "https://sketchfab.com/3d-models/rts-military-building-1-4925be311dbb4d66b636ff40b235b047",
      "title": "RTS Military Building 1"
    },
    "generator": "Sketchfab-12.68.0",
    "version": "2.0"
  },
  "bufferViews": [
    {
      "buffer": 0,
      "byteLength": 36360,
      "name": "floatBufferViews",
      "target": 34963
    },
    {
      "buffer": 0,
      "byteLength": 27312,
      "byteOffset": 36360,
      "byteStride": 8,
      "name": "floatBufferViews",
      "target": 34962
    },
    {
      "buffer": 0,
      "byteLength": 81936,
      "byteOffset": 63672,
      "byteStride": 12,
      "name": "floatBufferViews",
      "target": 34962
    },
    {
      "buffer": 0,
      "byteLength": 54624,
      "byteOffset": 145608,
      "byteStride": 16,
      "name": "floatBufferViews",
      "target": 34962
    }
  ],
  "buffers": [
    {
      "byteLength": 200232,
      "uri": "scene.bin"
    }
  ],
  "images": [
    {
      "uri": "textures/build_material_baseColor.jpeg"
    },
    {
      "uri": "textures/build_material_metallicRoughness.png"
    },
    {
      "uri": "textures/build_material_normal.jpeg"
    },
    {
      "uri": "textures/right_panel_baseColor.jpeg"
    },
    {
      "uri": "textures/right_panel_metallicRoughness.png"
    },
    {
      "uri": "textures/right_panel_normal.jpeg"
    },
    {
      "uri": "textures/left_panel_baseColor.jpeg"
    },
    {
      "uri": "textures/left_panel_metallicRoughness.png"
    },
    {
      "uri": "textures/left_panel_normal.jpeg"
    }
  ],
  "materials": [
    {
      "doubleSided": true,
      "name": "build_material",
      "normalTexture": {
        "index": 2
      },
      "occlusionTexture": {
        "index": 1
      },
      "pbrMetallicRoughness": {
        "baseColorTexture": {
          "index": 0
        },
        "metallicFactor": 0.6114710365853658,
        "metallicRoughnessTexture": {
          "index": 1
        }
      }
    },
    {
      "doubleSided": true,
      "name": "right_panel",
      "normalTexture": {
        "index": 5
      },
      "occlusionTexture": {
        "index": 4
      },
      "pbrMetallicRoughness": {
        "baseColorTexture": {
          "index": 3
        },
        "metallicFactor": 0.31878810975609756,
        "metallicRoughnessTexture": {
          "index": 4
        }
      }
    },
    {
      "doubleSided": true,
      "name": "left_panel",
      "normalTexture": {
        "index": 8
      },
      "occlusionTexture": {
        "index": 7
      },
      "pbrMetallicRoughness": {
        "baseColorTexture": {
          "index": 6
        },
        "metallicFactor": 0.4651295731707317,
        "metallicRoughnessTexture": {
          "index": 7
        }
      }
    }
  ],
  "meshes": [
    {
      "name": "defaultMaterial",
      "primitives": [
        {
          "attributes": {
            "NORMAL": 1,
            "POSITION": 0,
            "TANGENT": 2,
            "TEXCOORD_0": 3
          },
          "indices": 4,
          "material": 2,
          "mode": 4
        }
      ]
    },
    {
      "name": "defaultMaterial",
      "primitives": [
        {
          "attributes": {
            "NORMAL": 6,
            "POSITION": 5,
            "TANGENT": 7,
            "TEXCOORD_0": 8
          },
          "indices": 9,
          "material": 1,
          "mode": 4
        }
      ]
    },
    {
      "name": "defaultMaterial",
      "primitives": [
        {
          "attributes": {
            "NORMAL": 11,
            "POSITION": 10,
            "TANGENT": 12,
            "TEXCOORD_0": 13
          },
          "indices": 14,
          "material": 0,
          "mode": 4
        }
      ]
    }
  ],
  "nodes": [
    {
      "children": [
        1
      ],
      "matrix": [
        1.0,
        0.0,
        0.0,
        0.0,
        0.0,
        2.220446049250313e-16,
        -1.0,
        0.0,
        0.0,
        1.0,
        2.220446049250313e-16,
        0.0,
        0.0,
        0.0,
        0.0,
        1.0
      ],
      "name": "Sketchfab_model"
    },
    {
      "children": [
        2,
        4,
        6
      ],
      "matrix": [
        1.0,
        0.0,
        0.0,
        0.0,
        0.0,
        -4.371139006309477e-08,
        0.999999999999999,
        0.0,
        0.0,
        -0.999999999999999,
        -4.371139006309477e-08,
        0.0,
        0.0,
        0.0,
        0.0,
        1.0
      ],
      "name": "Collada visual scene group"
    },
    {
      "children": [
        3
      ],
      "name": "door_panel_left"
    },
    {
      "mesh": 0,
      "name": "defaultMaterial"
    },
    {
      "children": [
        5
      ],
      "name": "door_panel_right"
    },
    {
      "mesh": 1,
      "name": "defaultMaterial"
    },
    {
      "children": [
        7
      ],
      "name": "build"
    },
    {
      "mesh": 2,
      "name": "defaultMaterial"
    }
  ],
  "samplers": [
    {
      "magFilter": 9729,
      "minFilter": 9987,
      "wrapS": 10497,
      "wrapT": 10497
    }
  ],
  "scene": 0,
  "scenes": [
    {
      "name": "Sketchfab_Scene",
      "nodes": [
        0
      ]
    }
  ],
  "textures": [
    {
      "sampler": 0,
      "source": 0
    },
    {
      "sampler": 0,
      "source": 1
    },
    {
      "sampler": 0,
      "source": 2
    },
    {
      "sampler": 0,
      "source": 3
    },
    {
      "sampler": 0,
      "source": 4
    },
    {
      "sampler": 0,
      "source": 5
    },
    {
      "sampler": 0,
      "source": 6
    },
    {
      "sampler": 0,
      "source": 7
    },
    {
      "sampler": 0,
      "source": 8
    }
  ]
}
