{
  "accessors": [
    {
      "bufferView": 3,
      "componentType": 5126,
      "count": 804,
      "max": [
        14385.029296875,
        14342.2001953125,
        14395.7001953125
      ],
      "min": [
        -14385.029296875,
        -14342.2001953125,
        -14395.7001953125
      ],
      "type": "VEC3"
    },
    {
      "bufferView": 3,
      "byteOffset": 9648,
      "componentType": 5126,
      "count": 804,
      "max": [
        0.9990208148956299,
        0.9959862232208252,
        0.999563455581665
      ],
      "min": [
        -0.9990208745002747,
        -0.9959863424301147,
        -0.999563455581665
      ],
      "type": "VEC3"
    },
    {
      "bufferView": 4,
      "componentType": 5126,
      "count": 804,
      "max": [
        0.9960784316062927,
        0.9960784316062927,
        0.9960784316062927,
        1.0
      ],
      "min": [
        0.0,
        0.0,
        0.0,
        1.0
      ],
      "type": "VEC4"
    },
    {
      "bufferView": 2,
      "componentType": 5126,
      "count": 804,
      "max": [
        10.29931926727295,
        5.21337890625
      ],
      "min": [
        -5.17333984375,
        -9.93896484375
      ],
      "type": "VEC2"
    },
    {
      "bufferView": 1,
      "componentType": 5125,
      "count": 2976,
      "type": "SCALAR"
    },
    {
      "bufferView": 3,
      "byteOffset": 19296,
      "componentType": 5126,
      "count": 33,
      "max": [
        5983.482421875,
        26.371374130249023,
        -12994.1005859375
      ],
      "min": [
        4235.447265625,
        -1838.977783203125,
        -13673.0400390625
      ],
      "type": "VEC3"
    },
    {
      "bufferView": 3,
      "byteOffset": 19692,
      "componentType": 5126,
      "count": 33,
      "max": [
        -0.26390764117240906,
        0.16065865755081177,
        0.9629555344581604
      ],
      "min": [
        -0.4468730092048645,
        -0.03458493947982788,
        0.8918911218643188
      ],
      "type": "VEC3"
    },
    {
      "bufferView": 4,
      "byteOffset": 12864,
      "componentType": 5126,
      "count": 33,
      "max": [
        0.9960784316062927,
        0.9960784316062927,
        0.9960784316062927,
        1.0
      ],
      "min": [
        0.9960784316062927,
        0.9960784316062927,
        0.9960784316062927,
        1.0
      ],
      "type": "VEC4"
    },
    {
      "bufferView": 2,
      "byteOffset": 6432,
      "componentType": 5126,
      "count": 33,
      "max": [
        1.0,
        1.0
      ],
      "min": [
        0.0,
        0.0
      ],
      "type": "VEC2"
    },
    {
      "bufferView": 1,
      "byteOffset": 11904,
      "componentType": 5125,
      "count": 96,
      "type": "SCALAR"
    },
    {
      "bufferView": 3,
      "byteOffset": 20088,
      "componentType": 5126,
      "count": 576,
      "max": [
        989.5267944335938,
        11661.3798828125,
        1446.3475341796875
      ],
      "min": [
        -11282.58984375,
        513.1558227539063,
        -11127.4384765625
      ],
      "type": "VEC3"
    },
    {
      "bufferView": 3,
      "byteOffset": 27000,
      "componentType": 5126,
      "count": 576,
      "max": [
        0.8782703876495361,
        -0.22137382626533508,
        0.8587114810943604
      ],
      "min": [
        0.09661434590816498,
        -0.9317125082015991,
        0.05821679159998894
      ],
      "type": "VEC3"
    },
    {
      "bufferView": 4,
      "byteOffset": 13392,
      "componentType": 5126,
      "count": 576,
      "max": [
        1.0,
        1.0,
        1.0,
        1.0
      ],
      "min": [
        0.0,
        0.0,
        0.0,
        0.0
      ],
      "type": "VEC4"
    },
    {
      "bufferView": 2,
      "byteOffset": 6696,
      "componentType": 5126,
      "count": 576,
      "max": [
        4.000487804412842,
        0.99951171875
      ],
      "min": [
        -0.0004882813082076609,
        0.8410645127296448
      ],
      "type": "VEC2"
    },
    {
      "bufferView": 1,
      "byteOffset": 12288,
      "componentType": 5125,
      "count": 576,
      "type": "SCALAR"
    },
    {
      "bufferView": 3,
      "byteOffset": 33912,
      "componentType": 5126,
      "count": 260,
      "max": [
        588.4194946289063,
        11510.3193359375,
        1043.9505615234375
      ],
      "min": [
        -11085.490234375,
        902.5543212890625,
        -10916.9189453125
      ],
      "type": "VEC3"
    },
    {
      "bufferView": 3,
      "byteOffset": 37032,
      "componentType": 5126,
      "count": 260,
      "max": [
        0.877225399017334,
        -0.22226129472255707,
        0.8572683930397034
      ],
      "min": [
        0.09786505997180939,
        -0.9310612678527832,
        0.05984334275126457
      ],
      "type": "VEC3"
    },
    {
      "bufferView": 4,
      "byteOffset": 22608,
      "componentType": 5126,
      "count": 260,
      "max": [
        0.9921568632125854,
        0.9921568632125854,
        0.9921568632125854,
        1.0
      ],
      "min": [
        0.0,
        0.0,
        0.0,
        1.0
      ],
      "type": "VEC4"
    },
    {
      "bufferView": 2,
      "byteOffset": 11304,
      "componentType": 5126,
      "count": 260,
      "max": [
        4.000487804412842,
        0.9968262314796448
      ],
      "min": [
        -0.0004882813082076609,
        -0.0007324219332076609
      ],
      "type": "VEC2"
    },
    {
      "bufferView": 1,
      "byteOffset": 14592,
      "componentType": 5125,
      "count": 1056,
      "type": "SCALAR"
    },
    {
      "bufferView": 5,
      "componentType": 5126,
      "count": 3,
      "max": [
        1.0,
        5.96922752654945e-16,
        0.0,
        0.0,
        0.0,
        1.0,
        0.0,
        0.0,
        0.03158598393201828,
        1.6292067073209182e-07,
        1.0,
        0.0,
        0.0,
        0.0,
        0.0,
        1.0
      ],
      "min": [
        0.9995010495185852,
        0.0,
        -0.03158598393201828,
        0.0,
        -5.146010284562408e-09,
        1.0,
        -1.6283938464312087e-07,
        0.0,
        0.0,
        0.0,
        0.9995010495185852,
        0.0,
        0.0,
        0.0,
        0.0,
        1.0
      ],
      "type": "MAT4"
    },
    {
      "bufferView": 0,
      "componentType": 5123,
      "count": 804,
      "type": "VEC4"
    },
    {
      "bufferView": 4,
      "byteOffset": 26768,
      "componentType": 5126,
      "count": 804,
      "max": [
        1.0,
        0.0,
        0.0,
        0.0
      ],
      "min": [
        1.0,
        0.0,
        0.0,
        0.0
      ],
      "type": "VEC4"
    },
    {
      "bufferView": 0,
      "byteOffset": 6432,
      "componentType": 5123,
      "count": 33,
      "type": "VEC4"
    },
    {
      "bufferView": 4,
      "byteOffset": 39632,
      "componentType": 5126,
      "count": 33,
      "max": [
        1.0,
        0.0,
        0.0,
        0.0
      ],
      "min": [
        1.0,
        0.0,
        0.0,
        0.0
      ],
      "type": "VEC4"
    },
    {
      "bufferView": 0,
      "byteOffset": 6696,
      "componentType": 5123,
      "count": 576,
      "type": "VEC4"
    },
    {
      "bufferView": 4,
      "byteOffset": 40160,
      "componentType": 5126,
      "count": 576,
      "max": [
        1.0,
        0.0,
        0.0,
        0.0
      ],
      "min": [
        1.0,
        0.0,
        0.0,
        0.0
      ],
      "type": "VEC4"
    },
    {
      "bufferView": 0,
      "byteOffset": 11304,
      "componentType": 5123,
      "count": 260,
      "type": "VEC4"
    },
    {
      "bufferView": 4,
      "byteOffset": 49376,
      "componentType": 5126,
      "count": 260,
      "max": [
        1.0,
        0.0,
        0.0,
        0.0
      ],
      "min": [
        1.0,
        0.0,
        0.0,
        0.0
      ],
      "type": "VEC4"
    }
  ],
  "asset": {
    "extras": {
      "author": "megajakerake (https://sketchfab.com/jacobq1004)",
      "license": "CC-BY-4.0 (http://creativecommons.org/licenses/by/4.0/)",
      "source": "https://sketchfab.com/3d-models/sonic-colors-space-086c949f1f0c44278bd95c68b3de0e70",
      "title": "Sonic Colors Space"
    },
    "generator": "Sketchfab-15.4.0",
    "version": "2.0"
  },
  "bufferViews": [
    {
      "buffer": 0,
      "byteLength": 13384,
      "byteStride": 8,
      "name": "shortBufferViews",
      "target": 34962
    },
    {
      "buffer": 0,
      "byteLength": 18816,
      "byteOffset": 13384,
      "name": "floatBufferViews",
      "target": 34963
    },
    {
      "buffer": 0,
      "byteLength": 13384,
      "byteOffset": 32200,
      "byteStride": 8,
      "name": "floatBufferViews",
      "target": 34962
    },
    {
      "buffer": 0,
      "byteLength": 40152,
      "byteOffset": 45584,
      "byteStride": 12,
      "name": "floatBufferViews",
      "target": 34962
    },
    {
      "buffer": 0,
      "byteLength": 53536,
      "byteOffset": 85736,
      "byteStride": 16,
      "name": "floatBufferViews",
      "target": 34962
    },
    {
      "buffer": 0,
      "byteLength": 192,
      "byteOffset": 139272,
      "name": "floatBufferViews"
    }
  ],
  "buffers": [
    {
      "byteLength": 139464,
      "uri": "scene.bin"
    }
  ],
  "extensionsUsed": [
    "KHR_materials_emissive_strength"
  ],
  "images": [
    {
      "uri": "textures/z_kt1_stardust01__Opacity__F_baseColor.png"
    },
    {
      "uri": "textures/z_kt1_sun01__LuminouseO__F_baseColor.png"
    },
    {
      "uri": "textures/z_kt1_horizon01__Trans__F_baseColor.png"
    }
  ],
  "materials": [
    {
      "doubleSided": true,
      "emissiveFactor": [
        1.0,
        1.0,
        1.0
      ],
      "emissiveTexture": {
        "index": 0
      },
      "extensions": {
        "KHR_materials_emissive_strength": {
          "emissiveStrength": 10.0
        }
      },
      "name": "z_kt1_stardust01__Opacity__F",
      "pbrMetallicRoughness": {
        "baseColorTexture": {
          "index": 0
        },
        "metallicFactor": 0.0,
        "roughnessFactor": 0.8211145618000169
      }
    },
    {
      "doubleSided": true,
      "emissiveFactor": [
        1.0,
        1.0,
        1.0
      ],
      "emissiveTexture": {
        "index": 1
      },
      "extensions": {
        "KHR_materials_emissive_strength": {
          "emissiveStrength": 10.0
        }
      },
      "name": "z_kt1_sun01__LuminouseO__F",
      "pbrMetallicRoughness": {
        "baseColorTexture": {
          "index": 1
        },
        "metallicFactor": 0.0,
        "roughnessFactor": 0.8211145618000169
      }
    },
    {
      "doubleSided": true,
      "name": "z_kt1_horizon01__Trans__F",
      "pbrMetallicRoughness": {
        "baseColorTexture": {
          "index": 2
        },
        "metallicFactor": 0.0,
        "roughnessFactor": 0.8211145618000169
      }
    },
    {
      "doubleSided": true,
      "emissiveFactor": [
        1.0,
        1.0,
        1.0
      ],
      "emissiveTexture": {
        "index": 2
      },
      "extensions": {
        "KHR_materials_emissive_strength": {
          "emissiveStrength": 2.849532493813314
        }
      },
      "name": "z_kt1_horizon01__Opacity__F",
      "pbrMetallicRoughness": {
        "baseColorTexture": {
          "index": 2
        },
        "metallicFactor": 0.0,
        "roughnessFactor": 0.8211145618000169
      }
    }
  ],
  "meshes": [
    {
      "name": "polygon0_z_kt1_stardust01__Opacity__F___0",
      "primitives": [
        {
          "attributes": {
            "COLOR_0": 2,
            "JOINTS_0": 21,
            "NORMAL": 1,
            "POSITION": 0,
            "TEXCOORD_0": 3,
            "TEXCOORD_1": 3,
            "WEIGHTS_0": 22
          },
          "indices": 4,
          "material": 0,
          "mode": 4
        }
      ]
    },
    {
      "name": "polygon1_z_kt1_sun01__LuminouseO__F___0",
      "primitives": [
        {
          "attributes": {
            "COLOR_0": 7,
            "JOINTS_0": 23,
            "NORMAL": 6,
            "POSITION": 5,
            "TEXCOORD_0": 8,
            "TEXCOORD_1": 8,
            "WEIGHTS_0": 24
          },
          "indices": 9,
          "material": 1,
          "mode": 4
        }
      ]
    },
    {
      "name": "polygon3_z_kt1_horizon01__Trans__F___0",
      "primitives": [
        {
          "attributes": {
            "COLOR_0": 12,
            "JOINTS_0": 25,
            "NORMAL": 11,
            "POSITION": 10,
            "TEXCOORD_0": 13,
            "WEIGHTS_0": 26
          },
          "indices": 14,
          "material": 2,
          "mode": 4
        }
      ]
    },
    {
      "name": "polygon4_z_kt1_horizon01__Opacity__F___0",
      "primitives": [
        {
          "attributes": {
            "COLOR_0": 17,
            "JOINTS_0": 27,
            "NORMAL": 16,
            "POSITION": 15,
            "TEXCOORD_0": 18,
            "TEXCOORD_1": 18,
            "WEIGHTS_0": 28
          },
          "indices": 19,
          "material": 3,
          "mode": 4
        }
      ]
    }
  ],
  "nodes": [
    {
      "children": [
        1
      ],
      "matrix": [
        1.0,
        0.0,
        0.0,
        0.0,
        0.0,
        2.220446049250313e-16,
        -1.0,
        0.0,
        0.0,
        1.0,
        2.220446049250313e-16,
        0.0,
        0.0,
        0.0,
        0.0,
        1.0
      ],
      "name": "Sketchfab_model"
    },
    {
      "children": [
        2
      ],
      "matrix": [
        0.009999999776482582,
        0.0,
        0.0,
        0.0,
        0.0,
        0.0,
        0.009999999776482582,
        0.0,
        0.0,
        -0.009999999776482582,
        0.0,
        0.0,
        0.0,
        0.0,
        0.0,
        1.0
      ],
      "name": "thesky.fbx"
    },
    {
      "children": [
        3
      ],
      "name": "RootNode"
    },
    {
      "children": [
        4
      ],
      "matrix": [
        1.0,
        0.0,
        0.0,
        0.0,
        0.0,
        0.9999999999999867,
        1.6292067073209113e-07,
        0.0,
        0.0,
        -1.6292067073209113e-07,
        0.9999999999999867,
        0.0,
        0.0,
        0.0,
        0.0,
        1.0
      ],
      "name": "Armature"
    },
    {
      "children": [
        5,
        9,
        11,
        13,
        15,
        8,
        10,
        12,
        14
      ],
      "name": "Object_4"
    },
    {
      "children": [
        6
      ],
      "name": "_rootJoint"
    },
    {
      "children": [
        7
      ],
      "name": "stg620_sky_00",
      "rotation": [
        1.323330892359438e-23,
        -0.015794962644577026,
        -2.0459620336495335e-25,
        0.9998752474784851
      ]
    },
    {
      "name": "stg620_sky_end_01",
      "rotation": [
        -1.3234889800848443e-23,
        -0.0,
        1.2407709188295415e-24,
        1.0
      ],
      "translation": [
        0.0,
        1.0,
        -2.6469779601696886e-23
      ]
    },
    {
      "matrix": [
        1.000000022369707,
        -4.932699015313378e-17,
        0.0,
        0.0,
        4.932698904970349e-17,
        1.0,
        1.6292068494988305e-07,
        0.0,
        -8.036387022264692e-24,
        -1.6292068859437103e-07,
        1.000000022369707,
        0.0,
        0.0,
        0.0,
        0.0,
        1.0
      ],
      "name": "Object_8"
    },
    {
      "mesh": 0,
      "name": "Object_9",
      "skin": 0
    },
    {
      "matrix": [
        1.000000022369707,
        -4.932699015313378e-17,
        0.0,
        0.0,
        4.932698904970349e-17,
        1.0,
        1.6292068494988305e-07,
        0.0,
        -8.036387022264692e-24,
        -1.6292068859437103e-07,
        1.000000022369707,
        0.0,
        0.0,
        0.0,
        0.0,
        1.0
      ],
      "name": "Object_10"
    },
    {
      "mesh": 1,
      "name": "Object_11",
      "skin": 0
    },
    {
      "matrix": [
        1.000000022369707,
        -4.932699015313378e-17,
        0.0,
        0.0,
        4.932698904970349e-17,
        1.0,
        1.6292068494988305e-07,
        0.0,
        -8.036387022264692e-24,
        -1.6292068859437103e-07,
        1.000000022369707,
        0.0,
        0.0,
        0.0,
        0.0,
        1.0
      ],
      "name": "Object_12"
    },
    {
      "mesh": 2,
      "name": "Object_13",
      "skin": 0
    },
    {
      "matrix": [
        1.000000022369707,
        -4.932699015313378e-17,
        0.0,
        0.0,
        4.932698904970349e-17,
        1.0,
        1.6292068494988305e-07,
        0.0,
        -8.036387022264692e-24,
        -1.6292068859437103e-07,
        1.000000022369707,
        0.0,
        0.0,
        0.0,
        0.0,
        1.0
      ],
      "name": "Object_14"
    },
    {
      "mesh": 3,
      "name": "Object_15",
      "skin": 0
    }
  ],
  "samplers": [
    {
      "magFilter": 9729,
      "minFilter": 9987,
      "wrapS": 10497,
      "wrapT": 10497
    }
  ],
  "scene": 0,
  "scenes": [
    {
      "name": "Sketchfab_Scene",
      "nodes": [
        0
      ]
    }
  ],
  "skins": [
    {
      "inverseBindMatrices": 20,
      "joints": [
        5,
        6,
        7
      ],
      "skeleton": 5
    }
  ],
  "textures": [
    {
      "sampler": 0,
      "source": 0
    },
    {
      "sampler": 0,
      "source": 1
    },
    {
      "sampler": 0,
      "source": 2
    }
  ]
}
