{
  "accessors": [
    {
      "bufferView": 2,
      "componentType": 5126,
      "count": 1024,
      "max": [
        0.9918164610862732,
        0.1032886728644371,
        0.9918164610862732
      ],
      "min": [
        -0.991816520690918,
        0.0010955275502055883,
        -0.991816520690918
      ],
      "type": "VEC3"
    },
    {
      "bufferView": 2,
      "byteOffset": 12288,
      "componentType": 5126,
      "count": 1024,
      "max": [
        1.0,
        1.0,
        1.0
      ],
      "min": [
        -1.0,
        -1.0,
        -1.0
      ],
      "type": "VEC3"
    },
    {
      "bufferView": 1,
      "componentType": 5126,
      "count": 1024,
      "max": [
        0.0,
        0.0
      ],
      "min": [
        0.0,
        0.0
      ],
      "type": "VEC2"
    },
    {
      "bufferView": 0,
      "componentType": 5125,
      "count": 6144,
      "type": "SCALAR"
    },
    {
      "bufferView": 2,
      "byteOffset": 24576,
      "componentType": 5126,
      "count": 8494,
      "max": [
        1.0007835626602173,
        0.1013902798295021,
        1.0007835626602173
      ],
      "min": [
        -1.0007835626602173,
        -0.1950012743473053,
        -1.0007835626602173
      ],
      "type": "VEC3"
    },
    {
      "bufferView": 2,
      "byteOffset": 126504,
      "componentType": 5126,
      "count": 8494,
      "max": [
        1.0,
        1.0,
        1.0
      ],
      "min": [
        -1.0,
        -1.0,
        -1.0
      ],
      "type": "VEC3"
    },
    {
      "bufferView": 1,
      "byteOffset": 8192,
      "componentType": 5126,
      "count": 8494,
      "max": [
        0.0,
        0.0
      ],
      "min": [
        0.0,
        0.0
      ],
      "type": "VEC2"
    },
    {
      "bufferView": 0,
      "byteOffset": 24576,
      "componentType": 5125,
      "count": 50712,
      "type": "SCALAR"
    },
    {
      "bufferView": 2,
      "byteOffset": 228432,
      "componentType": 5126,
      "count": 1133,
      "max": [
        0.5191166996955872,
        0.48648130893707275,
        0.5191167593002319
      ],
      "min": [
        -0.5191164612770081,
        0.05899767205119133,
        -0.5191165804862976
      ],
      "type": "VEC3"
    },
    {
      "bufferView": 2,
      "byteOffset": 242028,
      "componentType": 5126,
      "count": 1133,
      "max": [
        0.9574609994888306,
        1.0,
        0.9574609994888306
      ],
      "min": [
        -0.9574609994888306,
        0.2885551154613495,
        -0.9574609994888306
      ],
      "type": "VEC3"
    },
    {
      "bufferView": 1,
      "byteOffset": 76144,
      "componentType": 5126,
      "count": 1133,
      "max": [
        1.0000003576278687,
        1.0000001192092896
      ],
      "min": [
        0.0,
        0.5625000596046448
      ],
      "type": "VEC2"
    },
    {
      "bufferView": 0,
      "byteOffset": 227424,
      "componentType": 5125,
      "count": 5184,
      "type": "SCALAR"
    },
    {
      "bufferView": 2,
      "byteOffset": 255624,
      "componentType": 5126,
      "count": 148,
      "max": [
        0.5299361944198608,
        0.09738221019506454,
        0.5683841109275818
      ],
      "min": [
        -0.5299509167671204,
        0.09019192308187485,
        -0.5683500170707703
      ],
      "type": "VEC3"
    },
    {
      "bufferView": 2,
      "byteOffset": 257400,
      "componentType": 5126,
      "count": 148,
      "max": [
        0.9850292205810547,
        0.9986146092414856,
        0.9866640567779541
      ],
      "min": [
        -0.9850282073020935,
        -0.998614490032196,
        -0.9866583943367004
      ],
      "type": "VEC3"
    },
    {
      "bufferView": 1,
      "byteOffset": 85208,
      "componentType": 5126,
      "count": 148,
      "max": [
        1.0000001192092896,
        1.0000001192092896
      ],
      "min": [
        0.0,
        0.0
      ],
      "type": "VEC2"
    },
    {
      "bufferView": 0,
      "byteOffset": 248160,
      "componentType": 5125,
      "count": 576,
      "type": "SCALAR"
    },
    {
      "bufferView": 2,
      "byteOffset": 259176,
      "componentType": 5126,
      "count": 194,
      "max": [
        0.2078348845243454,
        0.06182107701897621,
        0.2078348994255066
      ],
      "min": [
        -0.20783491432666779,
        0.029503108933568,
        -0.2078348994255066
      ],
      "type": "VEC3"
    },
    {
      "bufferView": 2,
      "byteOffset": 261504,
      "componentType": 5126,
      "count": 194,
      "max": [
        1.0,
        1.0,
        1.0
      ],
      "min": [
        -1.0,
        -1.0,
        -1.0
      ],
      "type": "VEC3"
    },
    {
      "bufferView": 1,
      "byteOffset": 86392,
      "componentType": 5126,
      "count": 194,
      "max": [
        0.0,
        0.0
      ],
      "min": [
        0.0,
        0.0
      ],
      "type": "VEC2"
    },
    {
      "bufferView": 0,
      "byteOffset": 250464,
      "componentType": 5125,
      "count": 1152,
      "type": "SCALAR"
    },
    {
      "bufferView": 2,
      "byteOffset": 263832,
      "componentType": 5126,
      "count": 344,
      "max": [
        -0.1754455715417862,
        0.05727963149547577,
        0.947589635848999
      ],
      "min": [
        -0.5310376882553101,
        0.014016514644026756,
        0.6755461692810059
      ],
      "type": "VEC3"
    },
    {
      "bufferView": 2,
      "byteOffset": 267960,
      "componentType": 5126,
      "count": 344,
      "max": [
        0.7407548427581787,
        0.9840430617332458,
        0.8684930801391602
      ],
      "min": [
        -0.8319151401519775,
        0.45680922269821167,
        -0.6847324967384338
      ],
      "type": "VEC3"
    },
    {
      "bufferView": 1,
      "byteOffset": 87944,
      "componentType": 5126,
      "count": 344,
      "max": [
        0.949999988079071,
        1.0
      ],
      "min": [
        0.0,
        0.0
      ],
      "type": "VEC2"
    },
    {
      "bufferView": 0,
      "byteOffset": 255072,
      "componentType": 5125,
      "count": 1890,
      "type": "SCALAR"
    },
    {
      "bufferView": 2,
      "byteOffset": 272088,
      "componentType": 5126,
      "count": 512,
      "max": [
        1.0096856355667114,
        -0.002547541866078973,
        1.009685754776001
      ],
      "min": [
        -1.0096856355667114,
        -0.025602059438824654,
        -1.009685754776001
      ],
      "type": "VEC3"
    },
    {
      "bufferView": 2,
      "byteOffset": 278232,
      "componentType": 5126,
      "count": 512,
      "max": [
        1.0,
        1.0,
        1.0
      ],
      "min": [
        -1.0,
        -1.0,
        -1.0
      ],
      "type": "VEC3"
    },
    {
      "bufferView": 1,
      "byteOffset": 90696,
      "componentType": 5126,
      "count": 512,
      "max": [
        0.0,
        0.0
      ],
      "min": [
        0.0,
        0.0
      ],
      "type": "VEC2"
    },
    {
      "bufferView": 0,
      "byteOffset": 262632,
      "componentType": 5125,
      "count": 3072,
      "type": "SCALAR"
    },
    {
      "bufferView": 2,
      "byteOffset": 284376,
      "componentType": 5126,
      "count": 96,
      "max": [
        0.972760021686554,
        0.01639971137046814,
        0.9739168882369995
      ],
      "min": [
        -0.9738420248031616,
        -0.1668144166469574,
        -0.973529040813446
      ],
      "type": "VEC3"
    },
    {
      "bufferView": 2,
      "byteOffset": 285528,
      "componentType": 5126,
      "count": 96,
      "max": [
        0.8113867044448853,
        0.7512639164924622,
        0.8113866448402405
      ],
      "min": [
        -0.8113867044448853,
        -0.7266384959220886,
        -0.8113866448402405
      ],
      "type": "VEC3"
    },
    {
      "bufferView": 1,
      "byteOffset": 94792,
      "componentType": 5126,
      "count": 96,
      "max": [
        1.0,
        1.0
      ],
      "min": [
        0.0,
        0.0
      ],
      "type": "VEC2"
    },
    {
      "bufferView": 0,
      "byteOffset": 274920,
      "componentType": 5125,
      "count": 288,
      "type": "SCALAR"
    }
  ],
  "asset": {
    "extras": {
      "author": "MAD_DUDE (https://sketchfab.com/MAD_DUDE)",
      "license": "CC-BY-4.0 (http://creativecommons.org/licenses/by/4.0/)",
      "source": "https://sketchfab.com/3d-models/ufospaceship-77a99a30b7eb42a3b7017dd97e5885b1",
      "title": "ufo(spaceship)"
    },
    "generator": "Sketchfab-12.66.0",
    "version": "2.0"
  },
  "bufferViews": [
    {
      "buffer": 0,
      "byteLength": 276072,
      "name": "floatBufferViews",
      "target": 34963
    },
    {
      "buffer": 0,
      "byteLength": 95560,
      "byteOffset": 276072,
      "byteStride": 8,
      "name": "floatBufferViews",
      "target": 34962
    },
    {
      "buffer": 0,
      "byteLength": 286680,
      "byteOffset": 371632,
      "byteStride": 12,
      "name": "floatBufferViews",
      "target": 34962
    }
  ],
  "buffers": [
    {
      "byteLength": 658312,
      "uri": "scene.bin"
    }
  ],
  "materials": [
    {
      "doubleSided": true,
      "name": "material",
      "pbrMetallicRoughness": {
        "baseColorFactor": [
          0.316494,
          0.562454,
          0.8,
          1.0
        ],
        "metallicFactor": 0.428571,
        "roughnessFactor": 0.0
      }
    },
    {
      "doubleSided": true,
      "name": "Material.002",
      "pbrMetallicRoughness": {
        "baseColorFactor": [
          0.0116122,
          0.0295568,
          0.06301,
          1.0
        ],
        "metallicFactor": 0.318182,
        "roughnessFactor": 0.186364
      }
    },
    {
      "doubleSided": true,
      "name": "glass",
      "pbrMetallicRoughness": {
        "metallicFactor": 0.8590144647319556,
        "roughnessFactor": 0.0
      }
    },
    {
      "doubleSided": true,
      "emissiveFactor": [
        0.0122864,
        0.955974,
        0.0395463
      ],
      "name": "light"
    },
    {
      "doubleSided": true,
      "emissiveFactor": [
        0.335781,
        1.0,
        0.0759987
      ],
      "name": "Material.004"
    },
    {
      "doubleSided": true,
      "name": "Material.005",
      "pbrMetallicRoughness": {
        "baseColorFactor": [
          0.0116122,
          0.0295568,
          0.06301,
          1.0
        ],
        "metallicFactor": 0.0,
        "roughnessFactor": 0.5
      }
    },
    {
      "doubleSided": true,
      "emissiveFactor": [
        0.0122864,
        0.955974,
        0.0395463
      ],
      "name": "big_light"
    }
  ],
  "meshes": [
    {
      "name": "Object_0",
      "primitives": [
        {
          "attributes": {
            "NORMAL": 1,
            "POSITION": 0,
            "TEXCOORD_0": 2
          },
          "indices": 3,
          "material": 0,
          "mode": 4
        }
      ]
    },
    {
      "name": "Object_1",
      "primitives": [
        {
          "attributes": {
            "NORMAL": 5,
            "POSITION": 4,
            "TEXCOORD_0": 6
          },
          "indices": 7,
          "material": 1,
          "mode": 4
        }
      ]
    },
    {
      "name": "Object_2",
      "primitives": [
        {
          "attributes": {
            "NORMAL": 9,
            "POSITION": 8,
            "TEXCOORD_0": 10
          },
          "indices": 11,
          "material": 2,
          "mode": 4
        }
      ]
    },
    {
      "name": "Object_3",
      "primitives": [
        {
          "attributes": {
            "NORMAL": 13,
            "POSITION": 12,
            "TEXCOORD_0": 14
          },
          "indices": 15,
          "material": 3,
          "mode": 4
        }
      ]
    },
    {
      "name": "Object_4",
      "primitives": [
        {
          "attributes": {
            "NORMAL": 17,
            "POSITION": 16,
            "TEXCOORD_0": 18
          },
          "indices": 19,
          "material": 4,
          "mode": 4
        }
      ]
    },
    {
      "name": "Object_5",
      "primitives": [
        {
          "attributes": {
            "NORMAL": 21,
            "POSITION": 20,
            "TEXCOORD_0": 22
          },
          "indices": 23,
          "material": 5,
          "mode": 4
        }
      ]
    },
    {
      "name": "Object_6",
      "primitives": [
        {
          "attributes": {
            "NORMAL": 25,
            "POSITION": 24,
            "TEXCOORD_0": 26
          },
          "indices": 27,
          "material": 6,
          "mode": 4
        }
      ]
    },
    {
      "name": "Object_7",
      "primitives": [
        {
          "attributes": {
            "NORMAL": 29,
            "POSITION": 28,
            "TEXCOORD_0": 30
          },
          "indices": 31,
          "material": 6,
          "mode": 4
        }
      ]
    }
  ],
  "nodes": [
    {
      "children": [
        1
      ],
      "matrix": [
        1.0,
        -1.8434147437684792e-16,
        6.124911785208093e-17,
        0.0,
        6.121556078899092e-17,
        -0.00018203631043411939,
        -1.0,
        0.0,
        1.843526181540602e-16,
        1.0,
        -0.00018203631043411939,
        0.0,
        -7.156885430958937e-07,
        0.07980756461620332,
        -0.05203452706336973,
        1.0
      ],
      "name": "Sketchfab_model"
    },
    {
      "children": [
        2
      ],
      "name": "root"
    },
    {
      "children": [
        3
      ],
      "matrix": [
        1.0,
        0.0,
        0.0,
        0.0,
        0.0,
        2.220446049250313e-16,
        1.0,
        0.0,
        0.0,
        -1.0,
        2.220446049250313e-16,
        0.0,
        0.0,
        0.0,
        0.0,
        1.0
      ],
      "name": "GLTF_SceneRootNode"
    },
    {
      "children": [
        4,
        5,
        6,
        7,
        8,
        9,
        11,
        13
      ],
      "matrix": [
        2.4894173447181673,
        -1.2539306429906756,
        -2.240950040911249,
        0.0,
        0.18055949996770979,
        3.1988658622078807,
        -1.5893562602661575,
        0.0,
        2.56156151795395,
        0.9931329204315028,
        2.289866251894951,
        0.0,
        0.0,
        0.0,
        0.0,
        1.0
      ],
      "name": "ufo_3"
    },
    {
      "mesh": 0,
      "name": "Object_4"
    },
    {
      "mesh": 1,
      "name": "Object_5"
    },
    {
      "mesh": 2,
      "name": "Object_6"
    },
    {
      "mesh": 3,
      "name": "Object_7"
    },
    {
      "mesh": 4,
      "name": "Object_8"
    },
    {
      "children": [
        10
      ],
      "name": "exhaust_0"
    },
    {
      "mesh": 5,
      "name": "Object_10"
    },
    {
      "children": [
        12
      ],
      "name": "light 1_1"
    },
    {
      "mesh": 6,
      "name": "Object_12"
    },
    {
      "children": [
        14
      ],
      "name": "light 2_2"
    },
    {
      "mesh": 7,
      "name": "Object_14"
    }
  ],
  "scene": 0,
  "scenes": [
    {
      "name": "Sketchfab_Scene",
      "nodes": [
        0
      ]
    }
  ]
}
