{
  "accessors": [
    {
      "bufferView": 2,
      "componentType": 5126,
      "count": 65532,
      "max": [
        0.6934348940849304,
        0.8080496788024902,
        0.1108841672539711
      ],
      "min": [
        -0.19936147332191467,
        -0.11150742322206497,
        -0.020150184631347656
      ],
      "type": "VEC3"
    },
    {
      "bufferView": 2,
      "byteOffset": 786384,
      "componentType": 5126,
      "count": 65532,
      "max": [
        0.9995149374008179,
        0.7994639277458191,
        1.0
      ],
      "min": [
        -0.9999976754188538,
        -0.9998292922973633,
        -0.9082927107810974
      ],
      "type": "VEC3"
    },
    {
      "bufferView": 1,
      "componentType": 5126,
      "count": 65532,
      "max": [
        0.7827280163764954,
        0.9925646781921387
      ],
      "min": [
        0.016310788691043854,
        0.02612227201461792
      ],
      "type": "VEC2"
    },
    {
      "bufferView": 0,
      "componentType": 5125,
      "count": 350445,
      "type": "SCALAR"
    },
    {
      "bufferView": 2,
      "byteOffset": 1572768,
      "componentType": 5126,
      "count": 65532,
      "max": [
        0.8473251461982727,
        1.2775753736495972,
        0.05546235665678978
      ],
      "min": [
        -0.5412970781326294,
        0.11762906610965729,
        -0.018413247540593147
      ],
      "type": "VEC3"
    },
    {
      "bufferView": 2,
      "byteOffset": 2359152,
      "componentType": 5126,
      "count": 65532,
      "max": [
        0.9716122150421143,
        0.9061111211776733,
        1.0
      ],
      "min": [
        -0.9947131276130676,
        -0.9636214971542358,
        -0.017426298931241035
      ],
      "type": "VEC3"
    },
    {
      "bufferView": 1,
      "byteOffset": 524256,
      "componentType": 5126,
      "count": 65532,
      "max": [
        0.9151806831359863,
        0.998690128326416
      ],
      "min": [
        0.019513726234436035,
        0.03299413621425629
      ],
      "type": "VEC2"
    },
    {
      "bufferView": 0,
      "byteOffset": 1401780,
      "componentType": 5125,
      "count": 345831,
      "type": "SCALAR"
    },
    {
      "bufferView": 2,
      "byteOffset": 3145536,
      "componentType": 5126,
      "count": 65532,
      "max": [
        0.46985143423080444,
        1.288069248199463,
        0.1108841672539711
      ],
      "min": [
        -0.5832022428512573,
        -0.3098968267440796,
        -0.023383084684610367
      ],
      "type": "VEC3"
    },
    {
      "bufferView": 2,
      "byteOffset": 3931920,
      "componentType": 5126,
      "count": 65532,
      "max": [
        0.9992321133613586,
        0.9034885168075562,
        1.0
      ],
      "min": [
        -0.9998106956481934,
        -0.9996224045753479,
        -0.6367206573486328
      ],
      "type": "VEC3"
    },
    {
      "bufferView": 1,
      "byteOffset": 1048512,
      "componentType": 5126,
      "count": 65532,
      "max": [
        0.9689998030662537,
        0.9873818159103394
      ],
      "min": [
        0.010913386940956116,
        0.026135236024856567
      ],
      "type": "VEC2"
    },
    {
      "bufferView": 0,
      "byteOffset": 2785104,
      "componentType": 5125,
      "count": 348969,
      "type": "SCALAR"
    },
    {
      "bufferView": 2,
      "byteOffset": 4718304,
      "componentType": 5126,
      "count": 65532,
      "max": [
        0.3256433308124542,
        0.28729456663131714,
        0.040290653705596924
      ],
      "min": [
        -0.674119770526886,
        -0.5470914840698242,
        -0.031029779464006424
      ],
      "type": "VEC3"
    },
    {
      "bufferView": 2,
      "byteOffset": 5504688,
      "componentType": 5126,
      "count": 65532,
      "max": [
        0.9962827563285828,
        0.8350277543067932,
        0.9999997615814209
      ],
      "min": [
        -0.9420270323753357,
        -0.9981683492660522,
        -0.9306712746620178
      ],
      "type": "VEC3"
    },
    {
      "bufferView": 1,
      "byteOffset": 1572768,
      "componentType": 5126,
      "count": 65532,
      "max": [
        0.9682545065879822,
        0.9793007969856262
      ],
      "min": [
        0.0015554558485746384,
        0.03121885284781456
      ],
      "type": "VEC2"
    },
    {
      "bufferView": 0,
      "byteOffset": 4180980,
      "componentType": 5125,
      "count": 353943,
      "type": "SCALAR"
    },
    {
      "bufferView": 2,
      "byteOffset": 6291072,
      "componentType": 5126,
      "count": 65532,
      "max": [
        -0.105699822306633,
        0.8676843643188477,
        0.05977896600961685
      ],
      "min": [
        -1.0185163021087646,
        -0.4287664592266083,
        -0.02011979930102825
      ],
      "type": "VEC3"
    },
    {
      "bufferView": 2,
      "byteOffset": 7077456,
      "componentType": 5126,
      "count": 65532,
      "max": [
        0.998257040977478,
        0.7493665218353271,
        0.9999999403953552
      ],
      "min": [
        -0.9437980055809021,
        -0.9912283420562744,
        -0.19838961958885193
      ],
      "type": "VEC3"
    },
    {
      "bufferView": 1,
      "byteOffset": 2097024,
      "componentType": 5126,
      "count": 65532,
      "max": [
        0.9754253625869751,
        0.9950301051139832
      ],
      "min": [
        0.008376466110348701,
        0.010970976203680038
      ],
      "type": "VEC2"
    },
    {
      "bufferView": 0,
      "byteOffset": 5596752,
      "componentType": 5125,
      "count": 348855,
      "type": "SCALAR"
    },
    {
      "bufferView": 2,
      "byteOffset": 7863840,
      "componentType": 5126,
      "count": 65532,
      "max": [
        0.5434428453445435,
        1.2312837839126587,
        0.06971245259046555
      ],
      "min": [
        -1.1997184753417969,
        -0.0511612668633461,
        -0.018968258053064346
      ],
      "type": "VEC3"
    },
    {
      "bufferView": 2,
      "byteOffset": 8650224,
      "componentType": 5126,
      "count": 65532,
      "max": [
        0.9914291501045227,
        0.703931450843811,
        0.9999998807907104
      ],
      "min": [
        -0.9981708526611328,
        -0.9999716877937317,
        -0.9082927107810974
      ],
      "type": "VEC3"
    },
    {
      "bufferView": 1,
      "byteOffset": 2621280,
      "componentType": 5126,
      "count": 65532,
      "max": [
        0.9516040682792664,
        0.9600183367729187
      ],
      "min": [
        0.04330737888813019,
        0.015503615140914917
      ],
      "type": "VEC2"
    },
    {
      "bufferView": 0,
      "byteOffset": 6992172,
      "componentType": 5125,
      "count": 336048,
      "type": "SCALAR"
    },
    {
      "bufferView": 2,
      "byteOffset": 9436608,
      "componentType": 5126,
      "count": 65532,
      "max": [
        0.8450862169265747,
        1.2846307754516602,
        0.1085217073559761
      ],
      "min": [
        -0.5163685083389282,
        0.10808692127466202,
        -0.018148081377148628
      ],
      "type": "VEC3"
    },
    {
      "bufferView": 2,
      "byteOffset": 10222992,
      "componentType": 5126,
      "count": 65532,
      "max": [
        0.9992992877960205,
        0.7545545101165771,
        1.0
      ],
      "min": [
        -0.9915369153022766,
        -0.9893625974655151,
        -0.5083255171775818
      ],
      "type": "VEC3"
    },
    {
      "bufferView": 1,
      "byteOffset": 3145536,
      "componentType": 5126,
      "count": 65532,
      "max": [
        0.9898861646652222,
        0.9943331480026245
      ],
      "min": [
        0.025751106441020966,
        0.028354257345199585
      ],
      "type": "VEC2"
    },
    {
      "bufferView": 0,
      "byteOffset": 8336364,
      "componentType": 5125,
      "count": 297108,
      "type": "SCALAR"
    },
    {
      "bufferView": 2,
      "byteOffset": 11009376,
      "componentType": 5126,
      "count": 65532,
      "max": [
        0.17199477553367615,
        1.2869690656661987,
        0.08447307348251343
      ],
      "min": [
        -1.2242796421051025,
        -0.2272915095090866,
        -0.013427364639937878
      ],
      "type": "VEC3"
    },
    {
      "bufferView": 2,
      "byteOffset": 11795760,
      "componentType": 5126,
      "count": 65532,
      "max": [
        0.9978824257850647,
        0.93668532371521,
        1.0
      ],
      "min": [
        -0.9980932474136353,
        -0.9981683492660522,
        -0.7539659142494202
      ],
      "type": "VEC3"
    },
    {
      "bufferView": 1,
      "byteOffset": 3669792,
      "componentType": 5126,
      "count": 65532,
      "max": [
        0.9898801445960999,
        0.9999549984931946
      ],
      "min": [
        0.008691206574440002,
        0.010806269943714142
      ],
      "type": "VEC2"
    },
    {
      "bufferView": 0,
      "byteOffset": 9524796,
      "componentType": 5125,
      "count": 290985,
      "type": "SCALAR"
    },
    {
      "bufferView": 2,
      "byteOffset": 12582144,
      "componentType": 5126,
      "count": 65534,
      "max": [
        0.5020381212234497,
        1.1475640535354614,
        0.10965526103973389
      ],
      "min": [
        -1.3406838178634644,
        -0.5685589909553528,
        -0.033580224961042404
      ],
      "type": "VEC3"
    },
    {
      "bufferView": 2,
      "byteOffset": 13368552,
      "componentType": 5126,
      "count": 65534,
      "max": [
        0.9983025193214417,
        0.9926332831382751,
        0.9999998211860657
      ],
      "min": [
        -0.9998140335083008,
        -0.9998781681060791,
        -0.829522967338562
      ],
      "type": "VEC3"
    },
    {
      "bufferView": 1,
      "byteOffset": 4194048,
      "componentType": 5126,
      "count": 65534,
      "max": [
        0.9664267897605896,
        0.9941802024841309
      ],
      "min": [
        0.00011417921632528305,
        3.536045551300049e-05
      ],
      "type": "VEC2"
    },
    {
      "bufferView": 0,
      "byteOffset": 10688736,
      "componentType": 5125,
      "count": 237864,
      "type": "SCALAR"
    },
    {
      "bufferView": 2,
      "byteOffset": 14154960,
      "componentType": 5126,
      "count": 1616,
      "max": [
        -0.0162926334887743,
        0.5851216912269592,
        0.11054901033639908
      ],
      "min": [
        -0.36542239785194397,
        0.2640802264213562,
        0.01935337856411934
      ],
      "type": "VEC3"
    },
    {
      "bufferView": 2,
      "byteOffset": 14174352,
      "componentType": 5126,
      "count": 1616,
      "max": [
        0.8541983962059021,
        0.616909921169281,
        0.9999881386756897
      ],
      "min": [
        -0.9967222213745117,
        -0.9915170669555664,
        -0.5279194116592407
      ],
      "type": "VEC3"
    },
    {
      "bufferView": 1,
      "byteOffset": 4718320,
      "componentType": 5126,
      "count": 1616,
      "max": [
        0.9397478699684143,
        0.9865751266479492
      ],
      "min": [
        0.0750875473022461,
        0.14251115918159485
      ],
      "type": "VEC2"
    },
    {
      "bufferView": 0,
      "byteOffset": 11640192,
      "componentType": 5125,
      "count": 3576,
      "type": "SCALAR"
    }
  ],
  "asset": {
    "extras": {
      "author": "Piotr Lezanski (https://sketchfab.com/lezak)",
      "license": "CC-BY-NC-4.0 (http://creativecommons.org/licenses/by-nc/4.0/)",
      "source": "https://sketchfab.com/3d-models/mars-perseverance-rover-mastercam-z-r-l-6aea5060d2764b4fb866b2be997aa1bd",
      "title": "Mars - Perseverance Rover, mastercam-Z (R-L)"
    },
    "generator": "Sketchfab-12.68.0",
    "version": "2.0"
  },
  "bufferViews": [
    {
      "buffer": 0,
      "byteLength": 11654496,
      "name": "floatBufferViews",
      "target": 34963
    },
    {
      "buffer": 0,
      "byteLength": 4731248,
      "byteOffset": 11654496,
      "byteStride": 8,
      "name": "floatBufferViews",
      "target": 34962
    },
    {
      "buffer": 0,
      "byteLength": 14193744,
      "byteOffset": 16385744,
      "byteStride": 12,
      "name": "floatBufferViews",
      "target": 34962
    }
  ],
  "buffers": [
    {
      "byteLength": 30579488,
      "uri": "scene.bin"
    }
  ],
  "extensionsUsed": [
    "KHR_materials_unlit"
  ],
  "images": [
    {
      "uri": "textures/material0_baseColor.jpeg"
    }
  ],
  "materials": [
    {
      "doubleSided": true,
      "extensions": {
        "KHR_materials_unlit": {}
      },
      "name": "material0",
      "pbrMetallicRoughness": {
        "baseColorTexture": {
          "index": 0
        },
        "metallicFactor": 0.0
      }
    }
  ],
  "meshes": [
    {
      "name": "Model_material0_0",
      "primitives": [
        {
          "attributes": {
            "NORMAL": 1,
            "POSITION": 0,
            "TEXCOORD_0": 2
          },
          "indices": 3,
          "material": 0,
          "mode": 4
        }
      ]
    },
    {
      "name": "Model_material0_0",
      "primitives": [
        {
          "attributes": {
            "NORMAL": 5,
            "POSITION": 4,
            "TEXCOORD_0": 6
          },
          "indices": 7,
          "material": 0,
          "mode": 4
        }
      ]
    },
    {
      "name": "Model_material0_0",
      "primitives": [
        {
          "attributes": {
            "NORMAL": 9,
            "POSITION": 8,
            "TEXCOORD_0": 10
          },
          "indices": 11,
          "material": 0,
          "mode": 4
        }
      ]
    },
    {
      "name": "Model_material0_0",
      "primitives": [
        {
          "attributes": {
            "NORMAL": 13,
            "POSITION": 12,
            "TEXCOORD_0": 14
          },
          "indices": 15,
          "material": 0,
          "mode": 4
        }
      ]
    },
    {
      "name": "Model_material0_0",
      "primitives": [
        {
          "attributes": {
            "NORMAL": 17,
            "POSITION": 16,
            "TEXCOORD_0": 18
          },
          "indices": 19,
          "material": 0,
          "mode": 4
        }
      ]
    },
    {
      "name": "Model_material0_0",
      "primitives": [
        {
          "attributes": {
            "NORMAL": 21,
            "POSITION": 20,
            "TEXCOORD_0": 22
          },
          "indices": 23,
          "material": 0,
          "mode": 4
        }
      ]
    },
    {
      "name": "Model_material0_0",
      "primitives": [
        {
          "attributes": {
            "NORMAL": 25,
            "POSITION": 24,
            "TEXCOORD_0": 26
          },
          "indices": 27,
          "material": 0,
          "mode": 4
        }
      ]
    },
    {
      "name": "Model_material0_0",
      "primitives": [
        {
          "attributes": {
            "NORMAL": 29,
            "POSITION": 28,
            "TEXCOORD_0": 30
          },
          "indices": 31,
          "material": 0,
          "mode": 4
        }
      ]
    },
    {
      "name": "Model_material0_0",
      "primitives": [
        {
          "attributes": {
            "NORMAL": 33,
            "POSITION": 32,
            "TEXCOORD_0": 34
          },
          "indices": 35,
          "material": 0,
          "mode": 4
        }
      ]
    },
    {
      "name": "Model_material0_0",
      "primitives": [
        {
          "attributes": {
            "NORMAL": 37,
            "POSITION": 36,
            "TEXCOORD_0": 38
          },
          "indices": 39,
          "material": 0,
          "mode": 4
        }
      ]
    }
  ],
  "nodes": [
    {
      "children": [
        1
      ],
      "matrix": [
        1.0,
        0.0,
        0.0,
        0.0,
        0.0,
        -5.053215392444312e-16,
        1.0,
        0.0,
        0.0,
        -1.0,
        -5.053215392444312e-16,
        0.0,
        0.0,
        -0.0773038640618326,
        0.7195073366165161,
        1.0
      ],
      "name": "Sketchfab_model"
    },
    {
      "children": [
        2
      ],
      "matrix": [
        1.0,
        0.0,
        0.0,
        0.0,
        0.0,
        -1.0,
        0.0,
        0.0,
        0.0,
        0.0,
        -1.0,
        0.0,
        0.0,
        0.0,
        0.0,
        1.0
      ],
      "name": "mars_mastercam_sol_54.fbx"
    },
    {
      "children": [
        3
      ],
      "name": "RootNode"
    },
    {
      "children": [
        4,
        5,
        6,
        7,
        8,
        9,
        10,
        11,
        12,
        13
      ],
      "name": "Model"
    },
    {
      "mesh": 0,
      "name": "Model_material0_0"
    },
    {
      "mesh": 1,
      "name": "Model_material0_0"
    },
    {
      "mesh": 2,
      "name": "Model_material0_0"
    },
    {
      "mesh": 3,
      "name": "Model_material0_0"
    },
    {
      "mesh": 4,
      "name": "Model_material0_0"
    },
    {
      "mesh": 5,
      "name": "Model_material0_0"
    },
    {
      "mesh": 6,
      "name": "Model_material0_0"
    },
    {
      "mesh": 7,
      "name": "Model_material0_0"
    },
    {
      "mesh": 8,
      "name": "Model_material0_0"
    },
    {
      "mesh": 9,
      "name": "Model_material0_0"
    }
  ],
  "samplers": [
    {
      "magFilter": 9729,
      "minFilter": 9987,
      "wrapS": 10497,
      "wrapT": 10497
    }
  ],
  "scene": 0,
  "scenes": [
    {
      "name": "Sketchfab_Scene",
      "nodes": [
        0
      ]
    }
  ],
  "textures": [
    {
      "sampler": 0,
      "source": 0
    }
  ]
}
